<svg width="250" height="250" viewBox="0 0 250 250" fill="none" xmlns="http://www.w3.org/2000/svg">
<circle cx="125" cy="125" r="125" fill="#FF6347"/>
<path d="M83.839 99.5563C83.5149 99.6644 83.5239 100.412 83.569 100.772C84.514 101.989 71.4178 125.5 70.6078 127.662C69.7977 129.824 77.7634 131.041 79.3836 131.311C81.0037 131.581 86.2692 135.5 97.6102 148.202C108.951 160.903 113.542 174.146 115.027 193.198C119.347 183.469 128.123 175.497 138.384 169.281C148.645 163.065 158.501 185.226 169.707 169.281C180.913 153.336 235.728 156.174 239.508 154.958C238.563 154.552 237.888 154.147 235.728 154.417C233.568 154.688 223.172 146.31 216.961 141.175C210.751 136.04 186.043 119.69 182.668 117.933C179.293 116.177 165.251 102.124 163.901 100.637C162.551 99.151 155.26 94.0162 143.109 91.719C130.958 89.4219 110.976 92.1244 106.926 92.8001C102.876 93.4757 98.1503 94.0162 95.7201 94.5567C93.2898 95.0972 86.9443 98.4753 86.2692 98.7456C85.5941 99.0158 84.244 99.4212 83.839 99.5563Z" fill="#00171F"/>
<path d="M23.6254 112.647C18.3543 115.457 16.0504 119.222 15.5573 120.754C17.0365 119.538 19.7258 119.267 19.9948 119.267C33.576 118.727 68.5714 128.571 70.2856 128.455C74.2857 128.725 74.992 128.32 84.1358 128.725C93.2796 129.13 95.8345 132.103 101.213 132.778C96.1034 125.618 97.5826 124.402 98.3894 123.321C99.1962 122.24 99.5966 123.842 100 123.571C100.403 123.301 101.647 124.015 102.857 124.286C104.067 124.556 104.37 126.023 105.714 126.429C107.059 126.834 111.164 126.563 112.24 126.563C113.315 126.563 113.315 125.888 113.181 125.212C113.046 124.537 110.76 123.05 109.954 122.375C109.147 121.699 109.55 120.889 108.743 120.889C107.937 120.889 107.533 120.483 106.592 119.808C105.651 119.132 102.558 118.727 102.02 118.727C101.482 118.727 101.886 117.376 101.348 116.7C100.81 116.025 98.7928 115.619 97.986 115.214C97.3405 114.89 92.7866 111.746 90.5902 110.215C90.9488 110.665 91.5584 111.647 91.1281 111.971C90.5902 112.377 84.1358 109.134 83.0601 107.513C81.9843 105.892 85.7494 103.595 84.8081 100.217C69.7478 100.757 30.2143 109.134 23.6254 112.647Z" fill="#007399" stroke="#00171F" stroke-width="2"/>
<path d="M123.268 117.955C118.853 116.647 119.095 111.506 119.768 109.099C119.768 108.781 120.173 108.174 121.142 107.411C122.354 106.457 126.851 104.367 130.432 106.73C132.21 107.903 132.316 111.771 131.75 113.868C131.428 115.058 128.788 119.59 123.268 117.955Z" fill="#F7FA6B"/>
<path d="M75.3119 104.728C75.206 104.513 75.2678 104.369 75.3119 104.324C75.7087 103.92 76.2379 104.594 76.8994 104.728C77.5609 104.863 78.8838 104.728 79.5453 104.998C80.2068 105.267 81.2651 106.749 81.0005 107.019C80.7359 107.288 78.3546 106.749 77.5609 106.345C76.7671 105.941 77.164 105.806 76.6348 105.402C76.1056 104.998 75.4442 104.998 75.3119 104.728Z" fill="#00171F"/>
<path d="M112.143 125.714C111.291 124.923 107.669 122.649 105.731 122.016C103.309 121.224 98.6 118.191 95.2363 117.531C91.8727 116.872 88.3744 115.553 85.4144 115.421C82.4544 115.289 69.6724 116.74 59.5813 116.081C49.4903 115.421 47.4721 114.498 18.8135 119.378" stroke="#00171F" stroke-width="2"/>
<path fill-rule="evenodd" clip-rule="evenodd" d="M113.915 111.153C113.87 111.198 113.915 111.369 114.454 111.693C114.986 112.012 115.183 113.171 115.308 113.911C115.342 114.109 115.37 114.277 115.399 114.391C115.431 114.518 115.447 114.661 115.465 114.811C115.523 115.298 115.59 115.867 116.208 116.28C116.59 116.534 116.971 116.429 117.325 116.331C117.721 116.221 118.081 116.122 118.367 116.549C118.409 116.613 118.457 116.69 118.513 116.778C119.158 117.807 120.73 120.316 124.707 120.192C129.024 120.057 134.285 117.089 134.959 109.939C133.88 104.678 128.889 104.408 126.596 104.678C125.136 104.85 122.639 106.223 120.737 107.269C119.651 107.867 118.759 108.357 118.367 108.455C117.287 108.725 114.454 109.535 113.915 111.153ZM114.859 111.289C115.219 111.289 116.1 111.478 116.748 112.233C116.976 112.5 117.205 112.983 117.483 113.568C118.187 115.053 119.206 117.201 121.334 118.169C124.302 119.518 127.675 118.843 129.833 117.224C131.992 115.606 132.936 112.773 133.206 110.075C132.126 107.511 129.833 106.297 128.889 106.162C127.945 106.028 124.302 105.623 120.795 108.051C118.317 109.766 116.984 109.866 116.272 109.919C115.976 109.942 115.787 109.956 115.668 110.075C115.567 110.176 115.441 110.277 115.314 110.378C114.935 110.682 114.556 110.985 114.859 111.289Z" fill="#007399"/>
<ellipse cx="125" cy="111.433" rx="3.07525" ry="3.25615" fill="#00171F"/>
</svg>
