<svg width="36" height="36" viewBox="0 0 36 36" fill="none" xmlns="http://www.w3.org/2000/svg">
<circle cx="18" cy="18" r="9" fill="#FEFFF0"/>
<path fill-rule="evenodd" clip-rule="evenodd" d="M18.75 1.5C19.1642 1.5 19.5 1.83579 19.5 2.25L19.5 6.75C19.5 7.16421 19.1642 7.5 18.75 7.5C18.3358 7.5 18 7.16421 18 6.75L18 2.25C18 1.83579 18.3358 1.5 18.75 1.5Z" fill="#FEFFF0"/>
<path fill-rule="evenodd" clip-rule="evenodd" d="M30.1972 6.8631C30.4901 7.156 30.4901 7.63087 30.1972 7.92376L27.0152 11.1057C26.7223 11.3986 26.2475 11.3986 25.9546 11.1057C25.6617 10.8128 25.6617 10.338 25.9546 10.0451L29.1365 6.8631C29.4294 6.57021 29.9043 6.57021 30.1972 6.8631Z" fill="#FEFFF0"/>
<path fill-rule="evenodd" clip-rule="evenodd" d="M17.25 34.5C16.8358 34.5 16.5 34.1642 16.5 33.75L16.5 29.25C16.5 28.8358 16.8358 28.5 17.25 28.5C17.6642 28.5 18 28.8358 18 29.25L18 33.75C18 34.1642 17.6642 34.5 17.25 34.5Z" fill="#FEFFF0"/>
<path fill-rule="evenodd" clip-rule="evenodd" d="M5.80279 29.1369C5.5099 28.844 5.5099 28.3691 5.80279 28.0762L8.98477 24.8943C9.27767 24.6014 9.75254 24.6014 10.0454 24.8943C10.3383 25.1872 10.3383 25.662 10.0454 25.9549L6.86345 29.1369C6.57056 29.4298 6.09568 29.4298 5.80279 29.1369Z" fill="#FEFFF0"/>
<path fill-rule="evenodd" clip-rule="evenodd" d="M34.5 18.75C34.5 19.1642 34.1642 19.5 33.75 19.5L29.25 19.5C28.8358 19.5 28.5 19.1642 28.5 18.75C28.5 18.3358 28.8358 18 29.25 18L33.75 18C34.1642 18 34.5 18.3358 34.5 18.75Z" fill="#FEFFF0"/>
<path fill-rule="evenodd" clip-rule="evenodd" d="M29.1368 30.1977C28.8439 30.4906 28.369 30.4906 28.0761 30.1977L24.8941 27.0157C24.6012 26.7228 24.6012 26.2479 24.8941 25.9551C25.187 25.6622 25.6619 25.6622 25.9548 25.9551L29.1368 29.137C29.4297 29.4299 29.4297 29.9048 29.1368 30.1977Z" fill="#FEFFF0"/>
<path fill-rule="evenodd" clip-rule="evenodd" d="M1.5 17.25C1.5 16.8358 1.83579 16.5 2.25 16.5L6.75 16.5C7.16421 16.5 7.5 16.8358 7.5 17.25C7.5 17.6642 7.16421 18 6.75 18L2.25 18C1.83579 18 1.5 17.6642 1.5 17.25Z" fill="#FEFFF0"/>
<path fill-rule="evenodd" clip-rule="evenodd" d="M6.86322 5.8023C7.15612 5.50941 7.63099 5.50941 7.92388 5.8023L11.1059 8.98428C11.3988 9.27718 11.3988 9.75205 11.1059 10.0449C10.813 10.3378 10.3381 10.3378 10.0452 10.0449L6.86322 6.86296C6.57033 6.57007 6.57033 6.0952 6.86322 5.8023Z" fill="#FEFFF0"/>
</svg>
