<svg width="100" height="100" viewBox="0 0 100 100" fill="none" xmlns="http://www.w3.org/2000/svg">
<rect width="100" height="100" rx="50" fill="#00171F"/>
<path d="M49.9726 83C43.2603 83 37.9224 81.375 33.9589 78.125C29.9954 74.875 27.3425 70.5417 26 65.125L39.9041 60.0588C40.2877 61.8431 40.863 63.5956 41.6301 65.3162C42.4612 66.973 43.5479 68.3431 44.8904 69.4265C46.2968 70.5098 47.9909 71.0515 49.9726 71.0515C53.1689 71.0515 55.5982 70.0637 57.2603 68.0882C58.9863 66.049 59.8493 62.4804 59.8493 57.3823V18H75V57.3823C75 65.348 72.8584 71.625 68.5753 76.2132C64.3562 80.7377 58.1553 83 49.9726 83Z" fill="#FEFFF0"/>
</svg>
